<svg xmlns="http://www.w3.org/2000/svg" viewBox="0 0 230.43 175"><defs><style>.cls-1{fill:#fff;}</style></defs><g id="图层_2" data-name="图层 2"><path class="cls-1" d="M87.5,150A62.5,62.5,0,1,1,150,87.5h25A87.5,87.5,0,1,0,87.5,175Z"/><circle class="cls-1" cx="87.5" cy="87.5" r="12.5"/><rect class="cls-1" x="107.5" y="100" width="25" height="75"/><path class="cls-1" d="M112.5,100v25h20A17.51,17.51,0,0,1,150,142.5V175h25V137.57A37.57,37.57,0,0,0,137.43,100Z"/><path class="cls-1" d="M99.87,103.2a19.94,19.94,0,0,1-24.74,0,.08.08,0,0,0-.13.06v58.83A12.77,12.77,0,0,0,87.27,175H100V103.26A.08.08,0,0,0,99.87,103.2Z"/><polygon class="cls-1" points="230.43 175 174.02 118.59 156.34 136.27 195.08 175 230.43 175"/><polygon class="cls-1" points="188.43 100.23 156.34 132.32 174.02 150 223.79 100.23 188.43 100.23"/><path class="cls-1" d="M170.63,111,175,106.6V87.5H150v9.4A42.76,42.76,0,0,1,170.63,111Z"/></g></svg>